<svg xmlns="http://www.w3.org/2000/svg" enable-background="new 0 0 16 16" viewBox="0 0 16 16" id="multi-chat"><g display="none"><path fill="none" stroke="#000" stroke-linecap="round" stroke-linejoin="round" stroke-miterlimit="10" d="M1.5,0.5c-0.6,0-1,0.4-1,1v12l4-4h8c0.6,0,1-0.4,1-1v-7c0-0.6-0.4-1-1-1H1.5z"></path><path fill="none" stroke="#000" stroke-linecap="round" stroke-linejoin="round" stroke-miterlimit="10" d="M15.5,2.5l0,8c0,0.6-0.4,1-1,1h-9"></path></g><g display="none"><path d="M14,8.5v-7C14,0.7,13.3,0,12.5,0h-11C0.7,0,0,0.7,0,1.5v12c0,0.2,0.1,0.4,0.3,0.5c0.1,0,0.1,0,0.2,0
			c0.1,0,0.3-0.1,0.4-0.1L4.7,10h7.8C13.3,10,14,9.3,14,8.5z M4.5,9C4.4,9,4.2,9.1,4.1,9.1L1,12.3V1.5C1,1.2,1.2,1,1.5,1h11
			C12.8,1,13,1.2,13,1.5v7C13,8.8,12.8,9,12.5,9H4.5z"></path><path d="M15.5,2C15.2,2,15,2.2,15,2.5v8c0,0.3-0.2,0.5-0.5,0.5h-9C5.2,11,5,11.2,5,11.5S5.2,12,5.5,12h9c0.8,0,1.5-0.7,1.5-1.5v-8
			C16,2.2,15.8,2,15.5,2z"></path></g><g><path fill="#ff6b6b" d="M10,0.5H1.5c-0.6,0-1,0.4-1,1v12l4-4H10c1.1,0,2-0.9,2-2v-5C12,1.4,11.1,0.5,10,0.5z"></path><path fill="#3e3643" d="M14,8.5v-7C14,0.7,13.3,0,12.5,0h-11C0.7,0,0,0.7,0,1.5v12c0,0.2,0.1,0.4,0.3,0.5c0.1,0,0.1,0,0.2,0
			c0.1,0,0.3-0.1,0.4-0.1L4.7,10h7.8C13.3,10,14,9.3,14,8.5z M4.5,9C4.4,9,4.2,9.1,4.1,9.1L1,12.3V1.5C1,1.2,1.2,1,1.5,1h11
			C12.8,1,13,1.2,13,1.5v7C13,8.8,12.8,9,12.5,9H4.5z"></path><path fill="#332d38" d="M15.5,2C15.2,2,15,2.2,15,2.5v8c0,0.3-0.2,0.5-0.5,0.5h-9C5.2,11,5,11.2,5,11.5S5.2,12,5.5,12h9
			c0.8,0,1.5-0.7,1.5-1.5v-8C16,2.2,15.8,2,15.5,2z"></path></g></svg>